<svg version="1" xmlns="http://www.w3.org/2000/svg" width="933.333" height="933.333" viewBox="0 0 700.000000 700.000000"><path d="M390 1.6c-11.6 1.5-24.9 4.5-36.1 7.9-30.7 9.5-61.1 27.7-84.6 50.7-8.1 7.9-9.8 11.7-8.7 19.6.6 4.7 1 5.1 176.3 180.5 96.6 96.7 177 176.6 178.6 177.4 3.7 2 9.9 2.5 14.1 1.2 5.8-1.8 24.5-22.8 36.2-40.8 6.8-10.4 15.8-27.9 20-39 3.2-8.3 8.7-26.3 9.6-31.4.3-1.5.7-3.5 1-4.5.5-1.7.9-4.6 2.6-19.2 1.1-9.3.5-38.2-1-47-3.6-22.4-10-42.3-19.4-60.5-8-15.5-11.3-20.6-22.2-34.4-10.3-12.9-18.7-20.8-23.4-22.1-7.2-1.9-13.6.2-21 7.2-1.4 1.3-11.5 10.1-22.5 19.7-11 9.5-21.3 18.5-23 20-1.6 1.5-6.4 5.6-10.5 9.1-4.1 3.6-8.3 7.3-9.4 8.2-1.1 1-2.2 1.8-2.5 1.8-.4 0-11.8-11.2-25.5-24.9-23.1-23.1-24.8-25-23.5-26.8 1.3-1.8 8.4-10.1 17-19.8 20-22.4 46.3-53.5 47.1-55.5 4.3-10.9.1-18.2-19.9-34.3C511.8 22.6 482 8.9 448 2.8 433.7.3 404.2-.4 390 1.6zM303.5 195.5c-4.4 1.5-7.6 4.8-42.5 42.5-13.9 15-37.4 40.2-48.9 52.4-5.1 5.4-5.3 5.9-3.6 7 1.6.9 40.4 19.3 56 26.6 2.2 1 8.1 3.7 13 6 5 2.3 12.2 5.7 16 7.5 3.9 1.8 12.8 6 19.9 9.4 7 3.4 13 6.1 13.1 6.1.2 0 9.2 4.2 36 17 5.9 2.7 10.8 5 10.9 5 .2 0 6.4 2.9 13.7 6.4 7.4 3.5 17 8 21.4 10.1 4.4 2.1 11.2 5.2 15 7 3.9 1.8 14 6.6 22.5 10.5 8.5 4 19.1 9 23.5 11 4.4 2.1 8.5 3.5 9.1 3.1 3.1-1.7 23.8-22 25.1-24.5 1.7-3.3 2.1-9.5.9-14.1-.5-2.2-25.8-28.1-91.9-94.3-50.2-50.2-92.5-92.1-94.2-93.2-4.2-2.6-10.2-3.2-15-1.5zM175.7 329.8c-3.1 3.1-6.9 7.3-8.7 9.2-3.5 3.8-9.5 10.3-21 22.6-13.4 14.3-25.5 27.6-25.8 28.2-.1.4 1.5 1.5 3.5 2.4 2.1.9 12.1 5.6 22.3 10.3 10.2 4.8 21.2 9.9 24.5 11.5 8.1 3.8 20.4 9.6 35.9 16.9 7 3.3 13 6.1 13.1 6.1.1 0 5.4 2.4 11.6 5.4 6.3 2.9 22.2 10.4 35.4 16.6 13.2 6.2 28.3 13.3 33.5 15.7 5.2 2.5 12 5.6 15 7 3 1.4 11.5 5.4 18.9 8.9 7.3 3.5 13.5 6.4 13.6 6.4.2 0 6.5 3 14.1 6.6 22.4 10.6 20.1 10.1 24.7 5.7 2.2-2.1 4.8-4.5 5.7-5.3.9-.8 7.4-6.9 14.4-13.5 7.1-6.6 13.6-12.7 14.6-13.5.9-.8 6.9-6.4 13.3-12.4 6.4-5.9 12.6-11.7 13.8-12.7l2.2-1.9-11.4-5.4c-6.3-2.9-14.3-6.7-17.9-8.3-3.6-1.7-14.4-6.8-24-11.3-9.6-4.5-20-9.4-23-10.7-3-1.4-11.5-5.4-18.9-8.9-7.3-3.5-13.5-6.4-13.7-6.4-.1 0-6-2.7-13.1-6.1-7-3.4-15.5-7.4-18.8-8.9-6.7-3.1-16.1-7.5-31-14.5-5.5-2.6-12.7-6-16-7.5-3.3-1.5-10.3-4.8-15.5-7.3-10.8-5.1-22.3-10.5-32.5-15.2-3.8-1.8-11.9-5.6-18-8.5-16.6-7.9-14.6-7.7-20.8-1.2zM89.5 422.3c-2.6 2.9-9.9 10.8-16.4 17.7-6.4 6.9-14.3 15.4-17.6 19-3.3 3.5-9.4 10-13.5 14.3-4.1 4.3-7.8 8.4-8.2 9.1-.5.9 2 2.6 8.5 5.6 5.1 2.4 15.2 7.2 22.5 10.7 7.4 3.4 13.5 6.3 13.7 6.3.3 0 8.4 3.8 18.1 8.5 9.7 4.7 17.8 8.5 17.9 8.5.2 0 5 2.2 10.7 4.9 5.6 2.7 13.2 6.2 16.8 7.9 7.6 3.5 33.8 15.7 46 21.4 4.7 2.2 11.7 5.5 15.5 7.3 3.9 1.8 11.5 5.4 17 8 5.5 2.6 16.1 7.5 23.5 11 7.4 3.4 19.2 9 26.2 12.3 7 3.3 13.5 6.3 14.5 6.6 2 .6 2.8-.1 21.7-17.8 6.5-6.1 13-12.2 14.5-13.5 1.4-1.3 7.2-6.7 12.9-12s12.6-11.7 15.4-14.3c4.5-4.2 4.8-4.7 3.2-5.6-1.1-.5-12.2-5.8-24.9-11.7-24.5-11.4-33.6-15.7-48-22.5-4.9-2.3-11.7-5.5-15-7-3.3-1.5-10.7-5-16.5-7.7-5.8-2.8-13.4-6.4-17-8.1-3.6-1.6-13.9-6.4-23-10.7-9.1-4.3-19.2-9-22.5-10.5-3.3-1.5-10.5-4.9-16-7.5-11.5-5.4-22.4-10.6-31-14.5-3.3-1.5-10.9-5.1-17-8-6-2.9-13.9-6.6-17.5-8.2-3.6-1.7-7.2-3.4-8.1-3.9-1.3-.6-2.8.4-6.4 4.4zM4.1 514.7c-4.8 5.9-5.3 14.4-1.2 20.2 1 1.4 38 38.7 82.1 82.8 83.7 83.7 82.2 82.3 90.3 82.3 3.7 0 9.3-3 14.3-7.7 4.7-4.4 26.4-24.7 30.3-28.2 3.9-3.5 25.5-23.8 32.5-30.3l6-5.6-7.5-3.5c-4-1.9-10.8-5.1-14.9-7-4.1-1.9-12-5.6-17.5-8.2-5.5-2.6-20.1-9.5-32.5-15.2-12.4-5.8-26.1-12.2-30.5-14.3-4.4-2-22.2-10.4-39.5-18.5s-34.6-16.2-38.5-18c-3.8-1.8-10.6-5-15-7-11.6-5.4-18.6-8.7-31-14.5-12.4-5.9-23.5-11-24-11-.2 0-1.7 1.7-3.4 3.7z"/></svg>